# xmcd
#
# Track frame offsets:
#	150
#	18747
#	43353
#	70659
#	105321
#	122857
#	140556
#	159751
#	191951
#
# Disc length: 2978 seconds
#
# Revision: 1
# Processed by: cddbd v1.5.2PL0 Copyright (c) Steve Scherf et al.
# Submitted via: EasyCDDAExtractor 16.0.6.1
#
DISCID=7e0ba009
DTITLE=Salif Keita - La Différence
DYEAR=2009
DGENRE=African-Mali-Kora
TTITLE0=La Différence
TTITLE1=San Ka Na
TTITLE2=Seydou
TTITLE3=Gaffou
TTITLE4=Folon
TTITLE5=Ekolo d'Amour
TTITLE6=Djélé
TTITLE7=Samiga
TTITLE8=Papa
EXTD=YEAR: 2009
EXTT0=
EXTT1=
EXTT2=
EXTT3=
EXTT4=
EXTT5=
EXTT6=
EXTT7=
EXTT8=
PLAYORDER=
